# Blender v2.92.0 OBJ File: 'DVD-Case2.blend'
# www.blender.org
mtllib DVD-Case2.mtl
o Cube_Cube.001
v -0.010000 -0.125000 -0.127000
v -0.010000 0.125000 -0.127000
v 0.010000 -0.125000 -0.127000
v 0.010000 0.125000 -0.127000
v -0.015000 -0.190000 0.135000
v -0.015000 0.190000 0.135000
v -0.015000 -0.190000 -0.135000
v -0.015000 0.190000 -0.135000
v 0.015000 -0.190000 0.135000
v 0.015000 0.190000 0.135000
v 0.015000 -0.190000 -0.135000
v 0.015000 0.190000 -0.135000
v -0.010000 -0.125000 -0.135000
v -0.010000 0.125000 -0.135000
v 0.010000 -0.125000 -0.135000
v 0.010000 0.125000 -0.135000
v -0.001000 -0.190000 -0.135000
v -0.001000 0.125000 -0.135000
v -0.001000 0.190000 -0.135000
v -0.001000 -0.125000 -0.135000
v 0.001000 0.125000 -0.135000
v 0.001000 0.190000 -0.135000
v 0.001000 -0.190000 -0.135000
v 0.001000 -0.125000 -0.135000
v -0.013000 -0.190000 0.131000
v -0.013000 0.190000 0.131000
v -0.013000 -0.190000 0.129000
v -0.013000 0.190000 0.129000
v -0.001000 -0.190000 0.129000
v 0.001000 -0.190000 0.129000
v -0.001000 0.190000 0.129000
v 0.001000 0.190000 0.129000
v 0.013000 -0.190000 0.129000
v 0.013000 0.190000 0.129000
v 0.013000 -0.190000 0.131000
v 0.013000 0.190000 0.131000
v -0.010000 -0.125000 -0.134000
v -0.001000 -0.185000 -0.134000
v -0.010000 0.125000 -0.134000
v 0.001000 -0.185000 -0.134000
v -0.001000 -0.125000 -0.134000
v 0.001000 -0.125000 -0.134000
v 0.001000 0.125000 -0.134000
v -0.001000 0.185000 -0.134000
v -0.001000 0.125000 -0.134000
v 0.010000 0.125000 -0.134000
v 0.010000 -0.125000 -0.134000
v 0.001000 0.185000 -0.134000
v -0.013000 -0.185000 0.131000
v -0.013000 -0.185000 0.129000
v -0.001000 -0.185000 0.129000
v 0.001000 -0.185000 0.129000
v 0.013000 -0.185000 0.129000
v 0.013000 -0.185000 0.131000
v -0.013000 0.185000 0.131000
v -0.001000 0.185000 0.129000
v -0.013000 0.185000 0.129000
v 0.013000 0.185000 0.129000
v 0.013000 0.185000 0.131000
v 0.001000 0.185000 0.129000
v 0.010000 0.000000 -0.135000
v -0.010000 -0.000000 -0.135000
v 0.010000 -0.015625 -0.134000
v -0.010000 0.015625 -0.134000
vt 0.375000 0.000000
vt 0.625000 0.000000
vt 0.625000 0.250000
vt 0.375000 0.250000
vt 0.375000 0.500000
vt 0.625000 0.500000
vt 0.625000 0.750000
vt 0.375000 0.750000
vt 0.625000 1.000000
vt 0.375000 1.000000
vt 0.582237 0.458333
vt 0.582237 0.383333
vt 0.625000 0.383333
vt 0.417763 0.458333
vt 0.375000 0.383333
vt 0.417763 0.383333
vt 0.258333 0.744444
vt 0.258333 0.500000
vt 0.125000 0.750000
vt 0.125000 0.500000
vt 0.241667 0.500000
vt 0.241667 0.744444
vt 0.141667 0.744444
vt 0.141667 0.746296
vt 0.358333 0.746296
vt 0.358333 0.744444
vt 0.758333 0.744444
vt 0.758333 0.500000
vt 0.875000 0.500000
vt 0.875000 0.750000
vt 0.741667 0.500000
vt 0.741667 0.744444
vt 0.641667 0.744444
vt 0.641667 0.746296
vt 0.858333 0.746296
vt 0.858333 0.744444
vt 0.133929 0.747202
vt 0.133929 0.745336
vt 0.241071 0.745336
vt 0.241071 0.500000
vt 0.258929 0.500000
vt 0.258929 0.745336
vt 0.366071 0.745336
vt 0.366071 0.747202
vt 0.866071 0.745336
vt 0.866071 0.747202
vt 0.633929 0.747202
vt 0.633929 0.745336
vt 0.741071 0.745336
vt 0.741071 0.500000
vt 0.758929 0.500000
vt 0.758929 0.745336
vt 0.237500 0.640625
vt 0.237500 0.625000
vt 0.125000 0.625000
vt 0.125000 0.640625
vt 0.375000 0.640625
vt 0.375000 0.625000
vt 0.262500 0.625000
vt 0.262500 0.640625
vt 0.875000 0.625000
vt 0.762500 0.625000
vt 0.762500 0.640625
vt 0.875000 0.640625
vt 0.737500 0.640625
vt 0.737500 0.625000
vt 0.625000 0.625000
vt 0.625000 0.640625
vt 0.384375 0.000000
vt 0.381250 0.000000
vt 0.381250 0.250000
vt 0.384375 0.250000
vt 0.615625 0.250000
vt 0.618750 0.250000
vt 0.618750 0.000000
vt 0.615625 0.000000
vt 0.615625 0.365385
vt 0.618750 0.365385
vt 0.381250 0.250000
vt 0.381250 0.365385
vt 0.384375 0.365385
vt 0.384375 0.384615
vt 0.381250 0.384615
vt 0.381250 0.500000
vt 0.384375 0.500000
vt 0.615625 0.500000
vt 0.618750 0.500000
vt 0.618750 0.384615
vt 0.615625 0.384615
vt 0.381250 0.500000
vt 0.381250 0.750000
vt 0.384375 0.750000
vt 0.615625 0.750000
vt 0.618750 0.750000
vt 0.615625 1.000000
vt 0.618750 1.000000
vt 0.381250 0.750000
vt 0.381250 1.000000
vt 0.384375 1.000000
vt 0.384375 0.000926
vt 0.381250 0.000926
vt 0.381250 0.245370
vt 0.421875 0.245370
vt 0.421875 0.244444
vt 0.384375 0.244444
vt 0.578125 0.245370
vt 0.618750 0.245370
vt 0.618750 0.000926
vt 0.615625 0.000926
vt 0.615625 0.244444
vt 0.578125 0.244444
vt 0.615625 0.749074
vt 0.618750 0.749074
vt 0.618750 0.504630
vt 0.578125 0.504630
vt 0.578125 0.505556
vt 0.615625 0.505556
vt 0.421875 0.504630
vt 0.381250 0.504630
vt 0.381250 0.749074
vt 0.384375 0.749074
vt 0.384375 0.505556
vt 0.421875 0.505556
vt 0.515625 0.109375
vt 0.625000 0.109375
vt 0.625000 0.000000
vt 0.375000 0.000000
vt 0.375000 0.109375
vt 0.375000 0.750000
vt 0.625000 0.750000
vt 0.484375 0.640625
vt 0.375000 1.000000
vt 0.625000 1.000000
vt 0.125000 0.750000
vt 0.875000 0.750000
vt 0.500000 0.458333
vt 0.417763 0.291667
vt 0.417763 0.366667
vt 0.375000 0.366667
vt 0.625000 0.366667
vt 0.582237 0.366667
vt 0.582237 0.291667
vt 0.500000 0.291667
vt 0.584459 0.366071
vt 0.625000 0.366071
vt 0.625000 0.383929
vt 0.584459 0.383929
vt 0.415541 0.366071
vt 0.415541 0.383929
vt 0.375000 0.383929
vt 0.375000 0.366071
vt 0.375000 0.125000
vt 0.500000 0.125000
vt 0.625000 0.125000
vt 0.500000 0.625000
vn -1.0000 0.0000 0.0000
vn 1.0000 0.0000 0.0000
vn 0.0000 0.0000 1.0000
vn 0.0000 0.0000 -1.0000
vn 0.0000 -1.0000 0.0000
vn 0.0000 1.0000 0.0000
usemtl None
s off
f 5/1/1 6/2/1 8/3/1 7/4/1
f 11/5/2 12/6/2 10/7/2 9/8/2
f 9/8/3 10/7/3 6/9/3 5/10/3
f 16/11/4 21/12/4 22/13/4 12/6/4
f 15/14/4 11/5/4 23/15/4 24/16/4
f 30/17/5 23/18/5 11/5/5 9/8/5 5/19/5 7/20/5 17/21/5 29/22/5 27/23/5 25/24/5 35/25/5 33/26/5
f 31/27/6 19/28/6 8/29/6 6/30/6 10/7/6 12/6/6 22/31/6 32/32/6 34/33/6 36/34/6 26/35/6 28/36/6
f 49/37/5 50/38/5 51/39/5 38/40/5 40/41/5 52/42/5 53/43/5 54/44/5
f 57/45/6 55/46/6 59/47/6 58/48/6 60/49/6 48/50/6 44/51/6 56/52/6
f 41/53/6 20/54/6 13/55/6 37/56/6
f 47/57/6 15/58/6 24/59/6 42/60/6
f 14/61/5 18/62/5 45/63/5 39/64/5
f 43/65/5 21/66/5 16/67/5 46/68/5
f 49/69/2 25/70/2 27/71/2 50/72/2
f 57/73/2 28/74/2 26/75/2 55/76/2
f 56/77/3 31/78/3 28/74/3 57/73/3
f 50/72/3 27/79/3 29/80/3 51/81/3
f 52/82/3 30/83/3 33/84/3 53/85/3
f 58/86/3 34/87/3 32/88/3 60/89/3
f 33/90/1 35/91/1 54/92/1 53/85/1
f 59/93/1 36/94/1 34/87/1 58/86/1
f 55/95/4 26/96/4 36/94/4 59/93/4
f 35/97/4 25/98/4 49/99/4 54/92/4
f 51/100/2 29/101/2 17/102/2 20/103/2 41/104/2 38/105/2
f 18/106/2 19/107/2 31/108/2 56/109/2 44/110/2 45/111/2
f 60/112/1 32/113/1 22/114/1 21/115/1 43/116/1 48/117/1
f 24/118/1 23/119/1 30/120/1 52/121/1 40/122/1 42/123/1
f 64/124/2 39/125/2 2/126/2 1/127/2 37/128/2
f 47/57/1 3/129/1 4/130/1 46/68/1 63/131/1
f 3/129/4 1/132/4 2/133/4 4/130/4
f 37/56/6 1/134/6 3/129/6 47/57/6 42/60/6 41/53/6
f 4/130/5 2/135/5 39/64/5 45/63/5 43/65/5 46/68/5
f 16/11/4 12/6/4 11/5/4 15/14/4 61/136/4
f 13/137/4 20/138/4 17/139/4 7/4/4 8/3/4 19/140/4 18/141/4 14/142/4 62/143/4
f 45/144/4 44/145/4 48/146/4 43/147/4
f 41/148/4 42/149/4 40/150/4 38/151/4
f 64/124/2 37/128/2 13/152/2 62/153/2
f 62/153/2 14/154/2 39/125/2 64/124/2
f 15/58/1 47/57/1 63/131/1 61/155/1
f 63/131/1 46/68/1 16/67/1 61/155/1
